<?xml version="1.0" encoding="UTF-8" standalone="no"?>
<!-- Created with Inkscape (http://www.inkscape.org/) -->

<svg
   width="168.53583mm"
   height="138.20549mm"
   viewBox="0 0 168.53583 138.20549"
   version="1.1"
   id="svg1"
   xml:space="preserve"
   xmlns:inkscape="http://www.inkscape.org/namespaces/inkscape"
   xmlns:sodipodi="http://sodipodi.sourceforge.net/DTD/sodipodi-0.dtd"
   xmlns="http://www.w3.org/2000/svg"
   xmlns:svg="http://www.w3.org/2000/svg"><sodipodi:namedview
     id="namedview1"
     pagecolor="#ffffff"
     bordercolor="#000000"
     borderopacity="0.25"
     inkscape:showpageshadow="2"
     inkscape:pageopacity="0.0"
     inkscape:pagecheckerboard="0"
     inkscape:deskcolor="#d1d1d1"
     inkscape:document-units="mm" /><defs
     id="defs1" /><g
     inkscape:label="Camada 1"
     inkscape:groupmode="layer"
     id="layer1"
     transform="translate(599.88637,586.90959)"><g
       aria-label="FIFTEEN"
       id="text2"
       style="font-weight:bold;font-size:35.2778px;-inkscape-font-specification:'sans-serif, Bold';text-align:center;text-anchor:middle;stroke-width:0.264583"><path
         d="m -817.761,-488.48417 h -11.79946 v 4.77146 h 10.93818 v 4.96094 h -10.93818 v 10.95541 h -6.58014 v -25.64875 h 18.3796 z"
         id="path3" /><path
         d="m -799.32973,-467.79636 h -15.02062 v -4.54753 h 4.20302 v -16.55369 h -4.20302 v -4.54753 h 15.02062 v 4.54753 h -4.20302 v 16.55369 h 4.20302 z"
         id="path4" /><path
         d="m -775.55855,-488.48417 h -11.79946 v 4.77146 h 10.93818 v 4.96094 h -10.93818 v 10.95541 h -6.58014 v -25.64875 h 18.3796 z"
         id="path5" /><path
         d="m -750.92611,-488.48417 h -8.00985 v 20.68781 h -6.61459 v -20.68781 h -8.00985 v -4.96094 h 22.63429 z"
         id="path6" /><path
         d="m -728.39517,-467.79636 h -18.55185 v -25.64875 h 18.55185 v 4.96094 h -11.97171 v 4.42695 h 11.11044 v 4.96094 h -11.11044 v 6.33898 h 11.97171 z"
         id="path7" /><path
         d="m -704.29671,-467.79636 h -18.55185 v -25.64875 h 18.55185 v 4.96094 h -11.97171 v 4.42695 h 11.11044 v 4.96094 h -11.11044 v 6.33898 h 11.97171 z"
         id="path8" /><path
         d="m -675.42678,-467.79636 h -6.37343 l -10.88651,-17.60445 v 17.60445 h -6.06337 v -25.64875 h 7.90649 l 9.35345,14.69334 v -14.69334 h 6.06337 z"
         id="path9" /><path
         d="m -577.59579,-488.48417 h -11.79946 v 4.77146 h 10.93818 v 4.96094 h -10.93818 v 10.95541 h -6.58014 v -25.64875 h 18.3796 z"
         id="path39"
         style="fill:#ffffff" /><path
         d="m -559.16452,-467.79636 h -15.02062 v -4.54753 h 4.20302 v -16.55369 h -4.20302 v -4.54753 h 15.02062 v 4.54753 h -4.20302 v 16.55369 h 4.20302 z"
         id="path40"
         style="fill:#ffffff" /><path
         d="m -535.39334,-488.48417 h -11.79946 v 4.77146 h 10.93818 v 4.96094 h -10.93818 v 10.95541 h -6.58014 v -25.64875 h 18.3796 z"
         id="path41"
         style="fill:#ffffff" /><path
         d="m -510.7609,-488.48417 h -8.00985 v 20.68781 h -6.61459 v -20.68781 h -8.00985 v -4.96094 h 22.63429 z"
         id="path42"
         style="fill:#ffffff" /><path
         d="m -488.22996,-467.79636 h -18.55185 v -25.64875 h 18.55185 v 4.96094 h -11.97171 v 4.42695 h 11.11044 v 4.96094 h -11.11044 v 6.33898 h 11.97171 z"
         id="path43"
         style="fill:#ffffff" /><path
         d="m -464.1315,-467.79636 h -18.55185 v -25.64875 h 18.55185 v 4.96094 h -11.97171 v 4.42695 h 11.11044 v 4.96094 h -11.11044 v 6.33898 h 11.97171 z"
         id="path44"
         style="fill:#ffffff" /><path
         d="m -435.26157,-467.79636 h -6.37343 l -10.88651,-17.60445 v 17.60445 h -6.06337 v -25.64875 h 7.90649 l 9.35345,14.69334 v -14.69334 h 6.06337 z"
         id="path45"
         style="fill:#ffffff" /></g><g
       aria-label="TRANSPORTADORA"
       id="g37"
       style="font-size:12.7209px;-inkscape-font-specification:'sans-serif, Normal';text-align:center;text-anchor:middle;fill:#ffffff;stroke-width:0.149073"
       inkscape:export-filename="logo_fifteen_preto.svg"
       inkscape:export-xdpi="96"
       inkscape:export-ydpi="96"
       transform="translate(240.16521)"><path
         d="m -809.31023,-457.05221 h -3.30445 v 8.15554 h -1.22985 v -8.15554 h -3.30446 v -1.0932 h 7.83876 z"
         id="path24"
         style="fill:#ffffff" /><path
         d="m -800.41554,-448.89667 h -1.59632 l -3.09327,-3.67713 h -1.73297 v 3.67713 h -1.22985 v -9.24874 h 2.59014 q 0.83854,0 1.39756,0.11181 0.55902,0.10559 1.00624,0.3851 0.50312,0.31678 0.78264,0.80127 0.28572,0.47828 0.28572,1.21743 0,1.00003 -0.50312,1.67707 -0.50312,0.67083 -1.38514,1.01246 z m -2.87586,-6.64617 q 0,-0.39753 -0.14287,-0.70189 -0.13665,-0.31057 -0.45964,-0.52175 -0.26709,-0.18013 -0.63356,-0.24846 -0.36647,-0.0745 -0.86338,-0.0745 h -1.44725 v 3.49079 h 1.24227 q 0.58387,0 1.01867,-0.0994 0.4348,-0.1056 0.73915,-0.38511 0.27952,-0.26087 0.40995,-0.59629 0.13666,-0.34162 0.13666,-0.86338 z"
         id="path25"
         style="fill:#ffffff" /><path
         d="m -791.9308,-448.89667 h -1.3106 l -0.90686,-2.57772 h -4.00013 l -0.90686,2.57772 h -1.24848 l 3.36656,-9.24874 h 1.63981 z m -2.59635,-3.63365 -1.62117,-4.54052 -1.62738,4.54052 z"
         id="path26"
         style="fill:#ffffff" /><path
         d="m -783.4709,-448.89667 h -1.52179 l -4.38523,-8.27355 v 8.27355 h -1.14911 v -9.24874 h 1.9069 l 4.00012,7.55304 v -7.55304 h 1.14911 z"
         id="path27"
         style="fill:#ffffff" /><path
         d="m -774.29049,-451.5365 q 0,0.54039 -0.25466,1.06835 -0.24846,0.52797 -0.70189,0.89444 -0.49691,0.39753 -1.16153,0.62114 -0.6584,0.22361 -1.59011,0.22361 -1.00003,0 -1.8013,-0.18634 -0.79505,-0.18634 -1.62117,-0.55281 v -1.54043 h 0.087 q 0.70189,0.58387 1.62117,0.90065 0.91929,0.31678 1.72676,0.31678 1.1429,0 1.77646,-0.42858 0.63977,-0.42859 0.63977,-1.14289 0,-0.61493 -0.30436,-0.90687 -0.29814,-0.29193 -0.91307,-0.45343 -0.46585,-0.12422 -1.01245,-0.20497 -0.54039,-0.0808 -1.14911,-0.20498 -1.22985,-0.26087 -1.82614,-0.88822 -0.59008,-0.63356 -0.59008,-1.64602 0,-1.16153 0.98139,-1.90068 0.9814,-0.74536 2.49077,-0.74536 0.97518,0 1.78887,0.18634 0.81369,0.18634 1.44104,0.45964 v 1.45346 h -0.087 q -0.52796,-0.44722 -1.39135,-0.73915 -0.85717,-0.29815 -1.75782,-0.29815 -0.9876,0 -1.59011,0.40995 -0.59629,0.40995 -0.59629,1.05594 0,0.57765 0.29815,0.90686 0.29814,0.3292 1.04972,0.50312 0.39753,0.087 1.13047,0.21119 0.73294,0.12422 1.24227,0.25466 1.03109,0.2733 1.55285,0.82611 0.52175,0.55282 0.52175,1.54664 z"
         id="path28"
         style="fill:#ffffff" /><path
         d="m -766.26539,-455.35029 q 0,0.61493 -0.2174,1.1429 -0.21118,0.52175 -0.59629,0.90686 -0.47827,0.47827 -1.13047,0.72052 -0.65219,0.23603 -1.64601,0.23603 h -1.22986 v 3.44731 h -1.22985 v -9.24874 h 2.5094 q 0.83232,0 1.40998,0.14286 0.57766,0.13665 1.02488,0.4348 0.52796,0.35405 0.81369,0.88202 0.29193,0.52796 0.29193,1.33544 z m -1.27954,0.0311 q 0,-0.47828 -0.16771,-0.83233 -0.16771,-0.35404 -0.50933,-0.57765 -0.29815,-0.19256 -0.68325,-0.2733 -0.3789,-0.087 -0.96277,-0.087 h -1.21743 v 3.69577 h 1.0373 q 0.74537,0 1.21122,-0.13044 0.46586,-0.13665 0.75779,-0.42859 0.29193,-0.29814 0.40995,-0.62735 0.12423,-0.3292 0.12423,-0.73915 z"
         id="path29"
         style="fill:#ffffff" /><path
         d="m -757.74959,-457.08326 q 0.56524,0.62114 0.86338,1.52179 0.30436,0.90064 0.30436,2.04354 0,1.14289 -0.31057,2.04975 -0.30436,0.90065 -0.85717,1.50316 -0.57145,0.62734 -1.35408,0.94412 -0.77642,0.31679 -1.77645,0.31679 -0.97519,0 -1.77646,-0.323 -0.79505,-0.32299 -1.35408,-0.93791 -0.55902,-0.61493 -0.86338,-1.50937 -0.29814,-0.89444 -0.29814,-2.04354 0,-1.13047 0.29814,-2.02491 0.29815,-0.90065 0.86959,-1.54042 0.54661,-0.60872 1.35408,-0.93171 0.81369,-0.32299 1.77025,-0.32299 0.99382,0 1.78266,0.3292 0.79506,0.32299 1.34787,0.9255 z m -0.1118,3.56533 q 0,-1.8013 -0.80748,-2.77649 -0.80748,-0.98139 -2.20504,-0.98139 -1.40998,0 -2.21746,0.98139 -0.80127,0.97519 -0.80127,2.77649 0,1.81993 0.8199,2.78891 0.8199,0.96276 2.19883,0.96276 1.37892,0 2.19261,-0.96276 0.81991,-0.96898 0.81991,-2.78891 z"
         id="path30"
         style="fill:#ffffff" /><path
         d="m -746.97906,-448.89667 h -1.59633 l -3.09326,-3.67713 h -1.73298 v 3.67713 h -1.22985 v -9.24874 h 2.59014 q 0.83854,0 1.39756,0.11181 0.55903,0.10559 1.00625,0.3851 0.50312,0.31678 0.78263,0.80127 0.28572,0.47828 0.28572,1.21743 0,1.00003 -0.50312,1.67707 -0.50312,0.67083 -1.38514,1.01246 z m -2.87587,-6.64617 q 0,-0.39753 -0.14286,-0.70189 -0.13665,-0.31057 -0.45965,-0.52175 -0.26708,-0.18013 -0.63356,-0.24846 -0.36647,-0.0745 -0.86338,-0.0745 h -1.44725 v 3.49079 h 1.24228 q 0.58387,0 1.01866,-0.0994 0.4348,-0.1056 0.73916,-0.38511 0.27951,-0.26087 0.40995,-0.59629 0.13665,-0.34162 0.13665,-0.86338 z"
         id="path31"
         style="fill:#ffffff" /><path
         d="m -739.56268,-457.05221 h -3.30445 v 8.15554 h -1.22985 v -8.15554 h -3.30446 v -1.0932 h 7.83876 z"
         id="path32"
         style="fill:#ffffff" /><path
         d="m -731.77361,-448.89667 h -1.3106 l -0.90686,-2.57772 h -4.00013 l -0.90686,2.57772 h -1.24849 l 3.36657,-9.24874 h 1.6398 z m -2.59636,-3.63365 -1.62117,-4.54052 -1.62738,4.54052 z"
         id="path33"
         style="fill:#ffffff" /><path
         d="m -722.55593,-453.51172 q 0,1.26091 -0.55282,2.28579 -0.5466,1.02487 -1.45967,1.59011 -0.63356,0.39132 -1.41619,0.56523 -0.77643,0.17392 -2.04976,0.17392 h -2.33548 v -9.24874 h 2.31064 q 1.35408,0 2.14913,0.19877 0.80127,0.19255 1.35408,0.53417 0.94413,0.59009 1.4721,1.57148 0.52797,0.9814 0.52797,2.32927 z m -1.28576,-0.0186 q 0,-1.087 -0.37889,-1.83236 -0.3789,-0.74537 -1.13047,-1.17395 -0.5466,-0.31057 -1.16153,-0.42859 -0.61493,-0.12422 -1.4721,-0.12422 h -1.15531 v 7.13687 h 1.15531 q 0.88823,0 1.54664,-0.13044 0.66461,-0.13044 1.21743,-0.48449 0.68946,-0.44101 1.03108,-1.16153 0.34784,-0.72051 0.34784,-1.80129 z"
         id="path34"
         style="fill:#ffffff" /><path
         d="m -713.67366,-457.08326 q 0.56524,0.62114 0.86338,1.52179 0.30436,0.90064 0.30436,2.04354 0,1.14289 -0.31057,2.04975 -0.30436,0.90065 -0.85717,1.50316 -0.57144,0.62734 -1.35408,0.94412 -0.77642,0.31679 -1.77645,0.31679 -0.97519,0 -1.77646,-0.323 -0.79505,-0.32299 -1.35408,-0.93791 -0.55902,-0.61493 -0.86338,-1.50937 -0.29814,-0.89444 -0.29814,-2.04354 0,-1.13047 0.29814,-2.02491 0.29815,-0.90065 0.8696,-1.54042 0.5466,-0.60872 1.35408,-0.93171 0.81369,-0.32299 1.77024,-0.32299 0.99382,0 1.78266,0.3292 0.79506,0.32299 1.34787,0.9255 z m -0.1118,3.56533 q 0,-1.8013 -0.80748,-2.77649 -0.80748,-0.98139 -2.20504,-0.98139 -1.40998,0 -2.21746,0.98139 -0.80127,0.97519 -0.80127,2.77649 0,1.81993 0.8199,2.78891 0.8199,0.96276 2.19883,0.96276 1.37892,0 2.19262,-0.96276 0.8199,-0.96898 0.8199,-2.78891 z"
         id="path35"
         style="fill:#ffffff" /><path
         d="m -702.90314,-448.89667 h -1.59632 l -3.09327,-3.67713 h -1.73297 v 3.67713 h -1.22985 v -9.24874 h 2.59014 q 0.83854,0 1.39756,0.11181 0.55902,0.10559 1.00624,0.3851 0.50313,0.31678 0.78264,0.80127 0.28572,0.47828 0.28572,1.21743 0,1.00003 -0.50312,1.67707 -0.50312,0.67083 -1.38514,1.01246 z m -2.87586,-6.64617 q 0,-0.39753 -0.14287,-0.70189 -0.13665,-0.31057 -0.45964,-0.52175 -0.26709,-0.18013 -0.63356,-0.24846 -0.36647,-0.0745 -0.86338,-0.0745 h -1.44725 v 3.49079 h 1.24228 q 0.58386,0 1.01866,-0.0994 0.4348,-0.1056 0.73915,-0.38511 0.27952,-0.26087 0.40996,-0.59629 0.13665,-0.34162 0.13665,-0.86338 z"
         id="path36"
         style="fill:#ffffff" /><path
         d="m -694.4184,-448.89667 h -1.3106 l -0.90686,-2.57772 h -4.00012 l -0.90686,2.57772 h -1.24849 l 3.36656,-9.24874 h 1.63981 z m -2.59635,-3.63365 -1.62117,-4.54052 -1.62738,4.54052 z"
         id="path37"
         style="fill:#ffffff" /></g><path
       style="fill:#ffffff"
       d="m -552.13098,-506.64865 c 0.093,-0.15026 -0.014,-0.19417 -0.251,-0.1032 -1.4408,0.5529 -4.2065,-3.46605 -4.8945,-7.11258 l -0.315,-1.66915 -2.2959,0.2363 c -1.2627,0.12997 -6.1265,0.24736 -10.8084,0.26086 l -8.5125,0.0246 -0.6156,1.31517 c -0.6613,1.41269 -1.7129,2.60099 -2.9926,3.38137 -1.2008,0.7323 -6.2577,0.70686 -7.4787,-0.0376 -0.473,-0.28836 -0.8599,-0.66495 -0.8599,-0.83686 0,-0.17192 -0.083,-0.22938 -0.1849,-0.12769 -0.2474,0.24741 -1.8728,-2.35673 -2.2453,-3.5974 -0.3478,-1.15818 -0.3734,-1.16783 -3.7214,-1.39823 l -2.5797,-0.17753 v -4.9263 -4.92631 l 0.7276,-0.58815 0.7276,-0.58815 -0.5708,-0.5806 c -0.5499,-0.55928 -0.5563,-0.63038 -0.1725,-1.93534 0.4329,-1.47217 1.8687,-4.01692 2.6813,-4.75234 0.4953,-0.44825 0.5035,-0.43329 0.3177,0.58287 -0.1049,0.57361 -0.2166,2.70666 -0.2482,4.74011 l -0.058,3.69718 0.6432,0.16143 c 2.7228,0.6834 13.0772,0.80997 21.2376,0.25961 l 2.3996,-0.16183 0.3275,-2.27942 c 0.1802,-1.25368 0.9238,-5.65509 1.6525,-9.78091 0.7286,-4.12582 1.2874,-7.53716 1.2416,-7.58074 -0.046,-0.0436 -1.6682,-0.22506 -3.6054,-0.40326 -4.5552,-0.41905 -14.597,-0.20375 -18.0122,0.38618 -1.3664,0.23603 -2.5215,0.39209 -2.5668,0.34679 -0.1964,-0.1964 4.4311,-2.05415 4.7011,-1.88729 0.1703,0.10523 0.227,0.0678 0.1315,-0.0868 -0.166,-0.26866 1.0349,-0.77195 4.6503,-1.94881 l 1.786,-0.58135 v -3.56976 c 0,-3.32495 0.039,-3.60364 0.5696,-4.06381 0.3133,-0.27173 0.9034,-0.49406 1.3113,-0.49406 0.7372,0 0.7422,0.0117 0.8195,1.91823 l 0.078,1.91823 0.8425,-2.64583 c 1.3679,-4.29521 1.3549,-4.10105 0.2747,-4.10105 h -0.9245 l 1.3162,-3.50573 c 0.7238,-1.92815 1.4286,-3.64183 1.5662,-3.80818 0.1375,-0.16635 0.9901,-0.44816 1.8947,-0.62624 l 1.6447,-0.32379 1.4552,-2.24181 c 3.1257,-4.81518 8.2652,-9.08847 13.1765,-10.95576 0.685,-0.26044 0.6861,-0.25883 0.189,0.29039 -0.2749,0.30376 -0.6623,0.48992 -0.8609,0.41369 -0.1987,-0.0762 -0.2967,-0.0342 -0.2179,0.0933 0.079,0.12755 -0.3615,0.6513 -0.9784,1.1639 -2.1421,1.77968 -3.664,3.36481 -3.4943,3.6394 0.1039,0.16802 0.2909,0.18281 0.4778,0.0378 0.3386,-0.26268 3.7018,-0.93242 6.7895,-1.35203 3.2206,-0.43769 7.5099,-0.7788 12.1871,-0.96919 l 4.3818,-0.17837 0.3197,-0.69442 c 0.6241,-1.35608 3.5805,-4.12865 4.0903,-3.83599 0.176,0.10104 0.2314,0.0859 0.123,-0.0337 -0.2449,-0.27021 1.5701,-1.53697 1.9053,-1.3298 0.134,0.0828 0.3402,-0.0204 0.4583,-0.22935 0.1181,-0.20896 1.1672,-0.77094 2.3314,-1.24884 1.9254,-0.79041 2.3557,-0.86729 4.7625,-0.85096 5.8725,0.0399 9.5803,0.47738 13.7124,1.61804 l 3.9228,1.0829 3.3532,-0.42687 3.3532,-0.42686 2.9105,0.86704 c 5.9447,1.771 6.7466,2.04814 6.5505,2.26407 -0.1103,0.12152 -0.052,0.13538 0.1299,0.0308 0.2762,-0.15893 7.5773,1.86268 13.6925,3.79134 0.8731,0.27537 2.9198,0.89131 4.5481,1.36875 1.6284,0.47744 2.92,0.93441 2.8703,1.01551 -0.05,0.0811 0.2253,0.15986 0.6112,0.17505 0.3859,0.0152 5.3451,1.42338 11.0204,3.12933 20.7667,6.24227 26.9825,8.08785 27.2395,8.08785 0.2387,0 0.1555,1.69016 -0.1033,2.09914 -0.2042,0.32269 -0.8062,0.25596 -4.0308,-0.44687 -2.085,-0.45442 -6.946,-1.49414 -10.8023,-2.31051 -8.0396,-1.70196 -16.0179,-3.41009 -18.5208,-3.96528 -0.9459,-0.20982 -4.5773,-0.99132 -8.0698,-1.73667 -18.8797,-4.02922 -22.6591,-4.80332 -22.7938,-4.66865 -0.067,0.0673 0.569,0.36377 1.4139,0.65884 1.5296,0.53424 3.4301,1.23318 14.5007,5.33287 3.2015,1.18557 8.9165,3.29205 12.7,4.68105 3.7835,1.38901 7.2364,2.68179 7.6729,2.87285 0.4366,0.19106 4.4252,1.6658 8.8636,3.27719 17.1143,6.2135 17.0582,6.19085 17.1341,6.91457 0.1502,1.43071 0.2104,1.42879 -8.5619,0.27328 -4.4964,-0.5923 -8.473,-1.14456 -8.8368,-1.22725 -0.4106,-0.0933 -0.5611,-0.058 -0.3969,0.0932 0.2669,0.24568 1.3539,0.59057 7.1438,2.26668 9.8633,2.85535 9.9693,2.89264 9.8608,3.46871 -0.056,0.29746 -0.8094,4.49949 -1.6741,9.33785 l -1.5722,8.79701 -0.8599,3.8e-4 -0.8599,3.9e-4 v 1.44528 c 0,1.72884 -0.8661,4.21091 -1.6645,4.77014 -0.3825,0.26792 -1.2092,0.39916 -2.5143,0.39916 -1.3106,0 -2.0647,0.12032 -2.3135,0.36915 -0.266,0.26594 -1.1805,0.37919 -3.2714,0.40508 l -2.9022,0.0359 -0.9657,-0.9657 c -0.6421,-0.64215 -0.9221,-1.13259 -0.8355,-1.46379 0.072,-0.27394 0.037,-0.44031 -0.077,-0.36971 -0.2678,0.16549 -0.5367,-1.18798 -0.5367,-2.7011 v -1.18441 l -1.9182,0.18917 c -2.2106,0.21799 -2.3151,0.25892 -2.3151,0.90609 0,0.5706 -0.6182,1.15387 -0.9267,0.87438 -0.1191,-0.10788 -0.1341,-0.0525 -0.033,0.12297 0.1074,0.18706 -0.092,0.49921 -0.4811,0.75436 -0.521,0.34134 -2.5353,0.57444 -9.335,1.08023 -4.7689,0.35473 -9.0486,0.57712 -9.5104,0.49421 -0.8809,-0.15817 -2.4676,-1.69657 -2.4676,-2.39253 0,-0.29684 -0.3669,-0.38767 -1.5659,-0.38767 -2.3604,0 -2.4028,0.0375 -2.4028,2.12479 0,1.99057 -0.4914,4.54439 -0.8337,4.33285 -0.1202,-0.0743 -0.1537,0.034 -0.074,0.24077 0.1495,0.38954 -0.6721,2.06333 -1.4333,2.91982 -0.895,1.00712 -1.7707,1.22969 -4.8384,1.22969 -2.7186,0 -3.0268,0.0509 -3.6063,0.59531 -0.6112,0.57421 -0.8118,0.59531 -5.6572,0.59531 h -5.0235 l -1.1067,-1.2027 c -0.6087,-0.66148 -1.2258,-1.41385 -1.3713,-1.67193 -0.296,-0.52492 0.9868,-0.60291 -19.4469,1.18221 -5.0205,0.4386 -9.3989,0.74689 -9.7298,0.6851 -0.3309,-0.0618 -0.6653,-0.009 -0.7432,0.11676 -0.078,0.12601 -0.5825,0.2291 -1.1215,0.2291 h -0.9798 l -0.5007,1.78594 c -0.8961,3.19661 -2.0397,5.04049 -3.7493,6.04513 -0.9603,0.5643 -1.3998,0.6356 -3.9182,0.6356 -1.8018,0 -2.7777,-0.0954 -2.675,-0.26155 z m 7.0999,-3.23691 c 0.4617,-0.46894 0.9377,-0.82318 1.0576,-0.78719 0.12,0.036 0.1395,-0.0618 0.043,-0.2173 -0.096,-0.1555 -0.052,-0.43052 0.098,-0.61116 0.1499,-0.18063 0.5316,-1.27256 0.8482,-2.4265 0.4807,-1.7522 0.5535,-2.5576 0.4414,-4.8855 -0.291,-6.04351 -2.9021,-9.71925 -5.7212,-8.05398 -3.6548,2.15894 -4.3122,12.48343 -1.0583,16.62011 1.1681,1.48494 3.0304,1.64184 4.2911,0.36152 z m 48.677,-6.56204 c 0.3745,-0.29452 1.0146,-1.21726 1.4225,-2.05052 0.6423,-1.31208 0.7548,-1.89641 0.8395,-4.36226 0.08,-2.31488 0.03,-2.82485 -0.2623,-2.72753 -0.1981,0.0658 -1.9079,0.18193 -3.7997,0.25798 -1.8918,0.0761 -3.4693,0.14258 -3.5057,0.14784 -0.2431,0.0352 0.01,3.88084 0.333,5.13523 0.396,1.52002 1.6678,3.69994 2.3096,3.95847 0.7702,0.31028 2.0276,0.14068 2.6631,-0.35921 z m 7.3235,-0.91732 c 0.5044,-0.2608 1.049,-0.97568 1.6072,-2.10954 0.7048,-1.43173 0.8672,-2.1166 0.9829,-4.14582 l 0.1386,-2.43078 -2.461,0.17469 c -1.3536,0.0961 -2.8384,0.17469 -3.2996,0.17469 h -0.8386 l 0.01,2.05052 c 0,1.12779 -0.079,2.47776 -0.1831,2.99994 -0.1543,0.77398 -0.065,1.13181 0.4805,1.93642 0.3684,0.54285 0.5899,1.11628 0.4922,1.27428 -0.1005,0.16257 -0.055,0.21188 0.1035,0.11358 0.1546,-0.0955 0.5599,-0.0619 0.9008,0.0746 0.879,0.35219 1.2059,0.33441 2.0703,-0.11262 z m 43.3817,-5.41176 c 0.9769,-0.97691 1.7692,-5.00823 1.0693,-5.44079 -0.1475,-0.0912 -1.2191,-0.0828 -2.3813,0.0186 l -2.113,0.18432 v 1.3549 c 0,3.44684 1.8105,5.49606 3.4235,3.88302 z m 4.0614,-0.32095 c 0.7937,-0.42475 1.3352,-1.00283 1.4167,-1.51216 0.038,-0.23674 0.1515,-1.25293 0.2526,-2.2582 l 0.1839,-1.82776 -1.6659,0.17412 c -0.9162,0.0958 -1.8568,0.17431 -2.0901,0.17455 -0.3556,3.6e-4 -0.4219,0.34842 -0.4097,2.15204 0.014,2.0108 0.062,2.19257 0.7423,2.77769 0.8436,0.7256 0.8206,0.72092 1.5702,0.31972 z m -82.2312,-1.95261 c 6.8395,-0.36452 12.7926,-0.69288 13.2292,-0.72969 0.7837,-0.0661 0.7781,-0.0749 -0.45,-0.70218 -0.684,-0.34939 -1.2016,-0.70368 -1.1502,-0.78731 0.051,-0.0836 -0.3415,-0.18899 -0.873,-0.23414 -1.3461,-0.11433 -27.1098,1.83893 -27.3803,2.07583 -0.1211,0.10606 -0.062,0.45113 0.1323,0.76684 0.3235,0.52691 0.5044,0.56167 2.2045,0.4237 1.0187,-0.0827 7.448,-0.44854 14.2875,-0.81305 z m -40.6245,-2.36487 c 2.2495,-0.3673 4.1744,-0.66782 4.2776,-0.66782 0.3886,0 1.1384,-2.54348 1.1384,-3.86151 0,-1.59045 -0.4104,-2.22391 -1.4408,-2.22391 -1.7692,0 -7.2311,2.22095 -8.2567,3.35739 -0.585,0.6482 -1.2638,2.56892 -1.2638,3.57607 0,0.71179 0.065,0.7684 0.7276,0.63456 0.4002,-0.0808 2.5682,-0.44747 4.8177,-0.81478 z m 79.3214,-2.78464 c 38.2805,-1.45197 34.4995,-1.24161 35.2173,-1.95939 l 0.6391,-0.63909 -1.4256,-0.1427 c -0.7841,-0.0785 -12.4314,-0.38501 -25.883,-0.68117 -28.1676,-0.62016 -25.4166,-0.85185 -25.4166,2.14059 v 1.81108 h 1.4568 c 0.8012,0 7.7366,-0.23819 15.412,-0.52932 z m -81.423,-3.01266 c 3.8506,-2.09132 11.0051,-4.28671 19.4532,-5.96934 5.2097,-1.03761 13.807,-2.39712 15.6184,-2.46978 1.4578,-0.0585 1.8371,-0.29162 0.9384,-0.57686 -2.5567,-0.81144 -11.903,-0.89419 -16.2898,-0.14423 -4.5099,0.77101 -9.362,2.04555 -11.7868,3.09615 -1.5408,0.66762 -5.1373,2.49033 -5.4901,2.78242 -0.1819,0.1506 -0.3307,0.21639 -0.3307,0.14618 0,-0.21779 -1.9025,1.44817 -3.3604,2.94252 -0.7643,0.78345 -1.3215,1.53471 -1.2382,1.66948 0.083,0.13476 0.2889,0.0683 0.4568,-0.14763 0.1679,-0.21596 1.0811,-0.81397 2.0292,-1.32891 z m 128.4261,-2.04959 c 0.096,-0.60151 0.1411,-1.12166 0.1,-1.15588 -0.041,-0.0342 -12.8741,-0.19752 -28.5176,-0.36288 -15.6435,-0.16537 -29.8279,-0.36597 -31.521,-0.44578 l -3.0782,-0.14511 -0.1107,0.94825 c -0.093,0.79236 -0.021,0.96561 0.4324,1.05382 0.6396,0.12432 48.4676,1.10169 56.7994,1.16071 l 5.7209,0.0405 z m -64.9949,-24.02707 c 0.037,-12.725 -0.022,-23.21989 -0.1323,-23.322 -0.1797,-0.16695 -2.1862,0.0235 -4.4993,0.42709 l -0.8599,0.15003 v 23.01601 23.01602 l 2.7119,-0.0754 2.712,-0.0754 z m -34.0596,13.54982 c 0.096,-0.11168 1.0429,-1.30156 2.1038,-2.64419 1.0608,-1.34262 2.0504,-2.36602 2.1989,-2.27422 0.1485,0.0918 0.1928,0.0419 0.098,-0.11083 -0.2682,-0.43397 0.4874,-0.59777 2.7573,-0.59777 h 2.0951 v -5.22553 -5.22552 l -0.991,-0.0457 c -0.5451,-0.0252 -2.5136,-0.18927 -4.3746,-0.3647 -1.861,-0.17543 -3.4279,-0.2739 -3.482,-0.21884 -0.1121,0.11389 -2.2622,10.74268 -2.2632,11.1873 -4e-4,0.19441 0.7496,0.26145 2.2771,0.20352 2.537,-0.0962 2.4963,-0.16809 0.9713,1.7159 l -0.8907,1.10035 -0.6373,-0.63733 c -0.3506,-0.35053 -0.8718,-0.63733 -1.1584,-0.63733 -0.4683,0 -0.5298,0.21672 -0.6074,2.13991 -0.047,1.17695 -0.047,2.1781 -2e-4,2.22478 0.1309,0.12906 1.7061,-0.35854 1.9053,-0.58976 z m 1.904,-6.30348 c -0.5641,-0.39512 -0.5879,-0.57538 -0.584,-4.43177 0,-2.21094 0.092,-4.15089 0.1985,-4.31101 0.4054,-0.60721 1.4087,-0.8995 3.0874,-0.8995 h 1.7372 v 5.02708 5.02708 h -1.9255 c -1.3146,0 -2.1121,-0.13069 -2.5136,-0.41188 z m -37.4035,1.49735 c 2.962,-0.16213 5.4769,-0.35123 5.5885,-0.42022 0.1117,-0.069 0.4182,-0.95511 0.6812,-1.96914 0.2677,-1.03216 0.5917,-1.7735 0.7362,-1.68423 0.1431,0.0885 0.1738,0.0231 0.069,-0.14667 -0.2229,-0.36066 1.9392,-8.02003 2.3442,-8.30439 0.2385,-0.16751 -0.067,-0.28888 -0.6492,-0.25818 -0.9698,0.0511 -11.519,0.91056 -11.5449,0.94057 -0.02,0.0226 -0.8426,2.76057 -1.8291,6.08429 -1.4636,4.93102 -1.7261,6.08485 -1.4267,6.26988 0.2018,0.12473 0.4296,0.12689 0.5062,0.005 0.077,-0.12207 2.5627,-0.3546 5.5248,-0.51673 z m 27.3658,-0.92152 c 0.5507,-0.27363 1.1235,-0.72573 1.2727,-1.00468 0.1493,-0.27894 0.8594,-3.09116 1.578,-6.24936 0.7186,-3.15821 1.3625,-5.89103 1.4309,-6.07293 0.1657,-0.44051 0.405,-0.45082 -10.7113,0.4614 -5.3091,0.43566 -9.6688,0.79285 -9.6882,0.79375 -0.019,8.9e-4 -0.092,0.26951 -0.1617,0.59693 -0.069,0.32743 -0.8572,3.10854 -1.7506,6.18026 -0.8934,3.07172 -1.6244,5.6911 -1.6246,5.82084 -10e-5,0.13617 3.9425,0.17996 9.3266,0.10359 8.4365,-0.11966 9.4224,-0.17978 10.3282,-0.6298 z m 17.7592,-27.41965 c 1.8202,-1.22326 3.6222,-1.84847 5.3279,-1.84847 2.4313,0 4.1073,1.01513 5.8552,3.54636 l 0.9312,1.34844 -0.1797,-1.05834 c -0.3938,-2.31997 -1.7949,-4.44783 -3.4124,-5.18236 -1.2745,-0.57879 -3.7965,-0.65013 -5.203,-0.14717 -1.9743,0.70605 -4.4524,2.65125 -6.0775,4.7706 -1.1439,1.49174 -0.9668,1.76555 0.3358,0.5192 0.6184,-0.59177 1.7085,-1.46849 2.4225,-1.94826 z m 12.0634,71.55254 c 7.4442,-0.87967 18.0289,-2.10317 29.6333,-3.42536 3.2742,-0.37306 13.676,-1.56597 23.115,-2.65092 9.439,-1.08495 17.3566,-1.96221 17.5948,-1.94946 0.4364,0.0234 -4.3925,1.01044 -10.0181,2.04781 -1.6735,0.3086 -7.2694,1.33921 -12.4354,2.29026 -5.166,0.95104 -12.9121,2.38289 -17.2136,3.18188 l -7.8208,1.4527 -15.1979,-0.0279 -15.1979,-0.0279 z m 71.3714,-8.22415 c 0.1819,-0.0734 0.4795,-0.0734 0.6614,0 0.1819,0.0734 0.033,0.13345 -0.3307,0.13345 -0.3638,0 -0.5127,-0.0601 -0.3307,-0.13345 z m -150.4818,-13.58306 c 0,-0.51976 0.1764,-0.52917 9.9219,-0.52917 9.7454,0 9.9218,0.009 9.9218,0.52917 0,0.51976 -0.1764,0.52917 -9.9218,0.52917 -9.7455,0 -9.9219,-0.009 -9.9219,-0.52917 z m 0.5291,-3.97197 c 0,-0.52517 0.1336,-0.53145 9.8522,-0.46302 9.1409,0.0644 9.8586,0.10279 9.9413,0.53239 0.084,0.43433 -0.5267,0.46302 -9.8522,0.46302 -9.7849,0 -9.9413,-0.008 -9.9413,-0.53239 z m 0.5292,-4.09782 c 0,-0.34573 1.2788,-0.39688 9.9219,-0.39688 8.643,0 9.9219,0.0512 9.9219,0.39688 0,0.34572 -1.2789,0.39687 -9.9219,0.39687 -8.6431,0 -9.9219,-0.0512 -9.9219,-0.39687 z m 0.7938,-4.10104 c 0,-0.51964 0.1764,-0.52917 9.7895,-0.52917 9.6132,0 9.7896,0.01 9.7896,0.52917 0,0.51963 -0.1764,0.52916 -9.7896,0.52916 -9.6131,0 -9.7895,-0.01 -9.7895,-0.52916 z"
       id="path38"
       sodipodi:nodetypes="csscsscsssscsscccccssssccsscssssssssscsssscsscssscsssssssssscsssssssscccssssssssssssssssssssssssssscccssssscsccscssscssssssscsssscsssssscsssccsscssssssssscssscsscsscssccscscscccsscsccssscsscssssscsscsssssssssssscssscsssssssssssssscsssccssccccscccccccsscscccsssssscssccccsccscccsscsssssscsssccsssssscssssssscssssssssssssscccsssssssssssscssssssssssss"
       inkscape:export-filename="logo_fifteen_preto.svg"
       inkscape:export-xdpi="96"
       inkscape:export-ydpi="96" /></g></svg>
